<!-- public/icon/bootstrap.svg -->
<svg xmlns="http://www.w3.org/2000/svg" viewBox="0 0 48 48" width="40" height="40" role="img" aria-labelledby="title">
  <title>Bootstrap</title>
  <defs>
    <linearGradient id="g-bs" x1="0" x2="0" y1="0" y2="1">
      <stop offset="0" stop-color="#a37bdc"/>
      <stop offset="1" stop-color="#7952b3"/>
    </linearGradient>
    <filter id="f-soft" x="-20%" y="-20%" width="140%" height="140%">
      <feDropShadow dx="0" dy="1" stdDeviation="1" flood-opacity="0.18"/>
    </filter>
  </defs>
  <rect x="4" y="4" width="40" height="40" rx="8" fill="url(#g-bs)"/>
  <!-- Huruf B sederhana, vector path biar gak tergantung font -->
  <path fill="#fff" filter="url(#f-soft)"
    d="M17 13h10c4.5 0 7 2.4 7 5.6c0 2.4-1.5 4.2-3.9 4.9
       c2.9.7 4.9 2.7 4.9 5.5c0 3.7-2.9 6-7.4 6H17V13zm6 8h3.5
       c2 0 3.2-.9 3.2-2.3c0-1.4-1.2-2.2-3.2-2.2H23v4.5zm0 11h4.2
       c2.4 0 3.8-1 3.8-2.7c0-1.6-1.4-2.7-3.8-2.7H23V32z"/>
</svg>
