<svg xmlns="http://www.w3.org/2000/svg" viewBox="0 0 48 48" width="40" height="40" role="img" aria-labelledby="title desc">
  <title>GitHub</title><desc>Ikon GitHub</desc>
  <defs>
    <linearGradient id="gh" x1="0" x2="0" y1="0" y2="1">
      <stop offset="0" stop-color="#2F2F2F"/><stop offset="1" stop-color="#000000"/>
    </linearGradient>
  </defs>
  <rect x="4" y="4" width="40" height="40" rx="8" fill="url(#gh)"/>
  <!-- simplified Octocat head -->
  <path fill="#fff" d="M24 14c-5.52 0-10 4.48-10 10 0 4.42 2.87 8.17 6.86 9.5.5.09.68-.21.68-.48l-.01-1.69c-2.79.62-3.38-1.2-3.38-1.2-.46-1.16-1.12-1.47-1.12-1.47-.92-.62.07-.61.07-.61 1.02.07 1.56 1.06 1.56 1.06.9 1.56 2.37 1.11 2.95.85.09-.68.35-1.11.63-1.37-2.23-.25-4.58-1.15-4.58-5.1 0-1.13.39-2.06 1.03-2.79-.1-.25-.45-1.27.1-2.64 0 0 .85-.27 2.8 1.06.81-.23 1.68-.34 2.55-.34s1.74.11 2.55.34c1.95-1.33 2.8-1.06 2.8-1.06.55 1.37.2 2.39.1 2.64.64.73 1.03 1.66 1.03 2.79 0 3.96-2.36 4.84-4.6 5.09.36.31.68.92.68 1.86l-.01 2.76c0 .28.18.58.69.48A10.01 10.01 0 0 0 34 24c0-5.52-4.48-10-10-10z"/>
</svg>
