<svg xmlns="http://www.w3.org/2000/svg" viewBox="0 0 48 48" width="40" height="40" role="img" aria-labelledby="title desc">
  <title>WhatsApp</title><desc>Ikon WhatsApp</desc>
  <defs>
    <linearGradient id="wa" x1="0" x2="0" y1="0" y2="1">
      <stop offset="0" stop-color="#25D366"/><stop offset="1" stop-color="#128C7E"/>
    </linearGradient>
  </defs>
  <rect x="4" y="4" width="40" height="40" rx="8" fill="url(#wa)"/>
  <!-- bubble -->
  <path fill="#fff" d="M24 13c-6.08 0-11 4.54-11 10.14 0 2.14.68 4.11 1.85 5.77l-1.21 4.43 4.56-1.2c1.6.9 3.47 1.42 5.8 1.42 6.08 0 11-4.54 11-10.14S30.08 13 24 13zm0 3c4.48 0 8 3.24 8 7.14S28.48 30.3 24 30.3c-2 .02-3.53-.4-4.97-1.24l-.35-.2-2.58.68.68-2.53-.23-.34A7.69 7.69 0 0 1 16 23.98C16 19.24 19.52 16 24 16z"/>
  <!-- handset -->
  <path fill="#fff" d="M28.53 26.94c-.24.52-1.42 1-1.97.98-.55-.03-1.26-.23-2.18-.64-1.52-.67-3.22-1.94-4.57-3.62-1.35-1.68-2.07-3.33-2.35-4.7-.18-.86.5-1.93 1-2.14l1.36-.6c.23-.1.52-.02.6.2l.97 2.31c.09.22.01.47-.19.6l-.76.47c-.2.12-.26.39-.14.61.54 1.02 1.2 1.9 1.97 2.64.75.72 1.6 1.34 2.52 1.85.21.12.47.07.6-.12l.54-.72c.15-.2.41-.27.63-.17l2.28 1.02c.22.1.32.35.24.56l-.55 1.37z"/>
</svg>
